<svg width="23" height="20" viewBox="0 0 23 20" fill="none" xmlns="http://www.w3.org/2000/svg">
<mask id="path-1-outside-1_516_13026" maskUnits="userSpaceOnUse" x="0" y="0" width="23" height="20" fill="black">
<rect fill="white" width="23" height="20"/>
<path fill-rule="evenodd" clip-rule="evenodd" d="M10.4602 2.41472L10.8223 2.09287L9.94798 1L9.5501 1.31371C7.88863 2.62371 5.76291 4.37388 4.05172 6.43545C2.34476 8.49193 1 10.9179 1 13.5783C1 15.1384 1.44125 16.4924 2.26995 17.4652C3.10527 18.4458 4.30249 19 5.72005 19C8.42621 19 10.3454 16.9962 10.628 14.5947L10.6659 14.2722L10.3898 14.1012C7.75298 12.4689 6.48546 10.9438 6.48546 8.85827C6.48546 6.91462 7.62064 4.93876 10.4602 2.41472ZM21.857 2.09287L20.9827 1L20.5848 1.31371C18.9233 2.62371 16.7976 4.37388 15.0864 6.43545C13.3795 8.49193 12.0347 10.9179 12.0347 13.5783C12.0347 15.1384 12.476 16.4924 13.3047 17.4652C14.14 18.4458 15.3372 19 16.7548 19C19.4609 19 21.3801 16.9962 21.6627 14.5947L21.7006 14.2722L21.4245 14.1012C18.7877 12.4689 17.5202 10.9438 17.5202 8.85827C17.5202 6.91462 18.6553 4.93876 21.4949 2.41472L21.857 2.09287ZM8.79365 2.5743C9.15843 2.2757 9.51269 1.99312 9.84937 1.72756L9.86604 1.71441L9.86616 1.71456C6.54937 4.32972 1.5104 8.60328 1.5104 13.5785C1.5104 14.9853 1.89163 16.1721 2.56975 17.0265C1.89156 16.1721 1.51028 14.9852 1.51028 13.5783C1.51028 9.11562 5.56461 5.21743 8.79365 2.5743ZM10.1212 14.5351C10.1212 14.5351 10.1212 14.5351 10.1212 14.5351C8.94132 13.8047 7.99654 13.0743 7.30862 12.284C7.99652 13.0743 8.94131 13.8047 10.1212 14.5351ZM18.6668 12.6324C19.3171 13.2913 20.1513 13.9132 21.1559 14.5351C21.1559 14.5351 21.1559 14.5351 21.1559 14.5351C20.1513 13.9132 19.3171 13.2913 18.6668 12.6324ZM13.6045 17.0265C12.9263 16.1721 12.5451 14.9853 12.5451 13.5785C12.5451 8.60328 17.5841 4.32972 20.9009 1.71456L20.9007 1.71441L20.8841 1.72756C20.5474 1.99312 20.1931 2.2757 19.8284 2.5743C16.5993 5.21743 12.545 9.11561 12.545 13.5783C12.545 14.9852 12.9263 16.1721 13.6045 17.0265Z"/>
</mask>
<path fill-rule="evenodd" clip-rule="evenodd" d="M10.4602 2.41472L10.8223 2.09287L9.94798 1L9.5501 1.31371C7.88863 2.62371 5.76291 4.37388 4.05172 6.43545C2.34476 8.49193 1 10.9179 1 13.5783C1 15.1384 1.44125 16.4924 2.26995 17.4652C3.10527 18.4458 4.30249 19 5.72005 19C8.42621 19 10.3454 16.9962 10.628 14.5947L10.6659 14.2722L10.3898 14.1012C7.75298 12.4689 6.48546 10.9438 6.48546 8.85827C6.48546 6.91462 7.62064 4.93876 10.4602 2.41472ZM21.857 2.09287L20.9827 1L20.5848 1.31371C18.9233 2.62371 16.7976 4.37388 15.0864 6.43545C13.3795 8.49193 12.0347 10.9179 12.0347 13.5783C12.0347 15.1384 12.476 16.4924 13.3047 17.4652C14.14 18.4458 15.3372 19 16.7548 19C19.4609 19 21.3801 16.9962 21.6627 14.5947L21.7006 14.2722L21.4245 14.1012C18.7877 12.4689 17.5202 10.9438 17.5202 8.85827C17.5202 6.91462 18.6553 4.93876 21.4949 2.41472L21.857 2.09287ZM8.79365 2.5743C9.15843 2.2757 9.51269 1.99312 9.84937 1.72756L9.86604 1.71441L9.86616 1.71456C6.54937 4.32972 1.5104 8.60328 1.5104 13.5785C1.5104 14.9853 1.89163 16.1721 2.56975 17.0265C1.89156 16.1721 1.51028 14.9852 1.51028 13.5783C1.51028 9.11562 5.56461 5.21743 8.79365 2.5743ZM10.1212 14.5351C10.1212 14.5351 10.1212 14.5351 10.1212 14.5351C8.94132 13.8047 7.99654 13.0743 7.30862 12.284C7.99652 13.0743 8.94131 13.8047 10.1212 14.5351ZM18.6668 12.6324C19.3171 13.2913 20.1513 13.9132 21.1559 14.5351C21.1559 14.5351 21.1559 14.5351 21.1559 14.5351C20.1513 13.9132 19.3171 13.2913 18.6668 12.6324ZM13.6045 17.0265C12.9263 16.1721 12.5451 14.9853 12.5451 13.5785C12.5451 8.60328 17.5841 4.32972 20.9009 1.71456L20.9007 1.71441L20.8841 1.72756C20.5474 1.99312 20.1931 2.2757 19.8284 2.5743C16.5993 5.21743 12.545 9.11561 12.545 13.5783C12.545 14.9852 12.9263 16.1721 13.6045 17.0265Z" fill="#453526"/>
<path d="M10.8223 2.09287L10.9923 2.2842L11.174 2.12273L11.0222 1.93294L10.8223 2.09287ZM10.4602 2.41472L10.6303 2.60606V2.60606L10.4602 2.41472ZM9.94798 1L10.1479 0.840078L9.98909 0.641585L9.78947 0.798971L9.94798 1ZM9.5501 1.31371L9.39159 1.11268V1.11268L9.5501 1.31371ZM4.05172 6.43545L4.2487 6.59896L4.05172 6.43545ZM2.26995 17.4652L2.07507 17.6312L2.26995 17.4652ZM10.628 14.5947L10.8822 14.6246L10.628 14.5947ZM10.6659 14.2722L10.9201 14.3021L10.9392 14.1403L10.8007 14.0545L10.6659 14.2722ZM10.3898 14.1012L10.5245 13.8836L10.5245 13.8836L10.3898 14.1012ZM20.9827 1L21.1826 0.840078L21.0238 0.641585L20.8242 0.798971L20.9827 1ZM21.857 2.09287L22.0271 2.2842L22.2087 2.12273L22.0569 1.93294L21.857 2.09287ZM20.5848 1.31371L20.4263 1.11268V1.11268L20.5848 1.31371ZM15.0864 6.43545L15.2834 6.59896L15.0864 6.43545ZM13.3047 17.4652L13.1098 17.6312H13.1098L13.3047 17.4652ZM21.6627 14.5947L21.4084 14.5648V14.5648L21.6627 14.5947ZM21.7006 14.2722L21.9549 14.3021L21.9739 14.1403L21.8354 14.0545L21.7006 14.2722ZM21.4245 14.1012L21.5592 13.8836L21.5592 13.8836L21.4245 14.1012ZM21.4949 2.41472L21.3248 2.22338V2.22338L21.4949 2.41472ZM9.84937 1.72756L9.69085 1.52654L9.69083 1.52656L9.84937 1.72756ZM8.79365 2.5743L8.6315 2.3762V2.3762L8.79365 2.5743ZM9.86604 1.71441L10.06 1.54732L9.89999 1.36162L9.70752 1.5134L9.86604 1.71441ZM9.86616 1.71456L10.0247 1.91559L10.2346 1.75003L10.0601 1.54746L9.86616 1.71456ZM2.56975 17.0265L2.36924 17.1857L2.77027 16.8674L2.56975 17.0265ZM10.1212 14.5351L9.98642 14.7528L10.3369 14.9698L10.376 14.5594L10.1212 14.5351ZM10.1212 14.5351L10.376 14.5594L10.3911 14.4011L10.2559 14.3174L10.1212 14.5351ZM7.30862 12.284L7.50172 12.1159L7.11552 12.4521L7.30862 12.284ZM18.6668 12.6324L18.849 12.4526L18.4846 12.8122L18.6668 12.6324ZM21.1559 14.5351L21.0211 14.7528L21.4119 14.9947V14.5351H21.1559ZM21.1559 14.5351H21.4119V14.3925L21.2906 14.3174L21.1559 14.5351ZM13.6045 17.0265L13.4039 17.1857L13.805 16.8674L13.6045 17.0265ZM20.9009 1.71456L21.0594 1.91559L21.271 1.74875L21.0935 1.54597L20.9009 1.71456ZM20.9007 1.71441L21.0934 1.54583L20.9332 1.36278L20.7422 1.5134L20.9007 1.71441ZM20.8841 1.72756L20.7256 1.52654L20.7255 1.52656L20.8841 1.72756ZM19.8284 2.5743L19.9905 2.77239V2.77239L19.8284 2.5743ZM10.6522 1.90153L10.2901 2.22338L10.6303 2.60606L10.9923 2.2842L10.6522 1.90153ZM9.74807 1.15992L10.6224 2.25279L11.0222 1.93294L10.1479 0.840078L9.74807 1.15992ZM9.7086 1.51474L10.1065 1.20103L9.78947 0.798971L9.39159 1.11268L9.7086 1.51474ZM4.2487 6.59896C5.94141 4.55965 8.04869 2.82352 9.7086 1.51474L9.39159 1.11268C7.72858 2.42391 5.58441 4.18811 3.85474 6.27195L4.2487 6.59896ZM1.256 13.5783C1.256 11.0046 2.55809 8.63574 4.2487 6.59896L3.85474 6.27195C2.13143 8.34812 0.744 10.8312 0.744 13.5783H1.256ZM2.46483 17.2992C1.68391 16.3825 1.256 15.0918 1.256 13.5783H0.744C0.744 15.1851 1.1986 16.6023 2.07507 17.6312L2.46483 17.2992ZM5.72005 18.744C4.37363 18.744 3.24906 18.2198 2.46483 17.2992L2.07507 17.6312C2.96148 18.6718 4.23135 19.256 5.72005 19.256V18.744ZM10.3737 14.5648C10.1049 16.8498 8.28426 18.744 5.72005 18.744V19.256C8.56815 19.256 10.586 17.1426 10.8822 14.6246L10.3737 14.5648ZM10.4117 14.2423L10.3737 14.5648L10.8822 14.6246L10.9201 14.3021L10.4117 14.2423ZM10.255 14.3189L10.5312 14.4898L10.8007 14.0545L10.5245 13.8836L10.255 14.3189ZM6.22946 8.85827C6.22946 11.0813 7.5968 12.6733 10.255 14.3189L10.5245 13.8836C7.90916 12.2645 6.74146 10.8062 6.74146 8.85827H6.22946ZM10.2901 2.22338C7.43508 4.76119 6.22946 6.80178 6.22946 8.85827H6.74146C6.74146 7.02747 7.80621 5.11632 10.6303 2.60606L10.2901 2.22338ZM20.7828 1.15992L21.6571 2.25279L22.0569 1.93294L21.1826 0.840078L20.7828 1.15992ZM20.7433 1.51474L21.1412 1.20103L20.8242 0.798971L20.4263 1.11268L20.7433 1.51474ZM15.2834 6.59896C16.9761 4.55965 19.0834 2.82352 20.7433 1.51474L20.4263 1.11268C18.7633 2.42391 16.6191 4.18811 14.8894 6.27195L15.2834 6.59896ZM12.2907 13.5783C12.2907 11.0046 13.5928 8.63574 15.2834 6.59896L14.8894 6.27195C13.1661 8.34812 11.7787 10.8312 11.7787 13.5783H12.2907ZM13.4995 17.2992C12.7186 16.3825 12.2907 15.0918 12.2907 13.5783H11.7787C11.7787 15.1851 12.2333 16.6023 13.1098 17.6312L13.4995 17.2992ZM16.7548 18.744C15.4083 18.744 14.2838 18.2198 13.4995 17.2992L13.1098 17.6312C13.9962 18.6718 15.2661 19.256 16.7548 19.256V18.744ZM21.4084 14.5648C21.1396 16.8498 19.319 18.744 16.7548 18.744V19.256C19.6029 19.256 21.6207 17.1426 21.9169 14.6246L21.4084 14.5648ZM21.4464 14.2423L21.4084 14.5648L21.9169 14.6246L21.9549 14.3021L21.4464 14.2423ZM21.2897 14.3189L21.5659 14.4898L21.8354 14.0545L21.5592 13.8836L21.2897 14.3189ZM17.2642 8.85827C17.2642 11.0813 18.6315 12.6733 21.2897 14.3189L21.5592 13.8836C18.9439 12.2645 17.7762 10.8062 17.7762 8.85827H17.2642ZM21.3248 2.22338C18.4698 4.76119 17.2642 6.80178 17.2642 8.85827H17.7762C17.7762 7.02747 18.8409 5.11633 21.665 2.60606L21.3248 2.22338ZM21.6869 1.90153L21.3248 2.22338L21.665 2.60606L22.0271 2.2842L21.6869 1.90153ZM9.69083 1.52656C9.3534 1.79272 8.99786 2.07631 8.6315 2.3762L8.9558 2.7724C9.31901 2.47509 9.67198 2.19353 10.0079 1.92856L9.69083 1.52656ZM9.70752 1.5134L9.69085 1.52654L10.0079 1.92857L10.0246 1.91543L9.70752 1.5134ZM10.0601 1.54746L10.06 1.54732L9.6721 1.88151L9.67222 1.88166L10.0601 1.54746ZM1.7664 13.5785C1.7664 11.1776 2.98349 8.92248 4.64147 6.92501C6.29732 4.93009 8.36781 3.22195 10.0247 1.91559L9.70766 1.51353C8.04772 2.82232 5.94033 4.55854 4.2475 6.598C2.55679 8.63489 1.2544 11.0042 1.2544 13.5785H1.7664ZM2.77027 16.8674C2.13536 16.0674 1.7664 14.9404 1.7664 13.5785H1.2544C1.2544 15.0301 1.6479 16.2768 2.36923 17.1857L2.77027 16.8674ZM1.25428 13.5783C1.25428 15.0301 1.64783 16.2768 2.36924 17.1857L2.77027 16.8673C2.13529 16.0674 1.76628 14.9403 1.76628 13.5783H1.25428ZM8.6315 2.3762C7.01197 3.70187 5.17279 5.35221 3.73734 7.23897C2.30286 9.12443 1.25428 11.2686 1.25428 13.5783H1.76628C1.76628 11.4253 2.74486 9.38907 4.14481 7.54898C5.54378 5.71018 7.34629 4.08986 8.9558 2.7724L8.6315 2.3762ZM10.376 14.5594L10.376 14.5594L9.86633 14.5108L9.86632 14.5109L10.376 14.5594ZM10.2559 14.3174C9.08692 13.5938 8.166 12.8791 7.50172 12.1159L7.11552 12.4521C7.82708 13.2695 8.79573 14.0157 9.98643 14.7528L10.2559 14.3174ZM7.11552 12.4521C7.82706 13.2696 8.79571 14.0157 9.98642 14.7528L10.2559 14.3175C9.0869 13.5938 8.16599 12.8791 7.50172 12.1159L7.11552 12.4521ZM18.4846 12.8122C19.1543 13.4908 20.0068 14.1249 21.0211 14.7528L21.2906 14.3175C20.2957 13.7016 19.4799 13.0919 18.849 12.4526L18.4846 12.8122ZM20.8999 14.5351C20.8999 14.5192 20.9014 14.5064 20.9025 14.4989C20.903 14.4951 20.9035 14.492 20.9039 14.4901C20.9042 14.4884 20.9044 14.487 20.9044 14.4872C20.9044 14.4872 20.9044 14.4872 20.9044 14.4872C20.9044 14.4872 20.9044 14.4872 20.9044 14.4872C20.9044 14.4872 20.9044 14.4872 20.9044 14.4872C20.9044 14.4872 20.9044 14.4873 20.9044 14.4873C20.9044 14.4873 20.9044 14.4873 20.9044 14.4874C20.9043 14.4875 20.9043 14.4877 20.9043 14.4879C20.9042 14.4884 20.904 14.4892 20.9039 14.4901C20.9035 14.492 20.903 14.4951 20.9025 14.4989C20.9014 14.5064 20.8999 14.5192 20.8999 14.5351H21.4119C21.4119 14.5511 21.4104 14.5638 21.4093 14.5713C21.4088 14.5752 21.4082 14.5783 21.4079 14.5801C21.4076 14.5818 21.4073 14.5833 21.4074 14.583C21.4074 14.583 21.4074 14.583 21.4074 14.583C21.4074 14.583 21.4074 14.583 21.4074 14.583C21.4074 14.583 21.4074 14.583 21.4074 14.583C21.4074 14.583 21.4074 14.583 21.4074 14.583C21.4074 14.5829 21.4074 14.5829 21.4074 14.5828C21.4074 14.5827 21.4075 14.5825 21.4075 14.5823C21.4076 14.5818 21.4077 14.5811 21.4079 14.5801C21.4082 14.5783 21.4088 14.5752 21.4093 14.5713C21.4104 14.5638 21.4119 14.551 21.4119 14.5351H20.8999ZM18.4846 12.8122C19.1543 13.4907 20.0068 14.1248 21.0211 14.7528L21.2906 14.3174C20.2958 13.7015 19.4799 13.0918 18.849 12.4526L18.4846 12.8122ZM13.805 16.8674C13.1701 16.0674 12.8011 14.9404 12.8011 13.5785H12.2891C12.2891 15.0301 12.6826 16.2768 13.4039 17.1857L13.805 16.8674ZM12.8011 13.5785C12.8011 11.1776 14.0182 8.92248 15.6762 6.92501C17.332 4.93009 19.4025 3.22195 21.0594 1.91559L20.7424 1.51353C19.0824 2.82232 16.975 4.55854 15.2822 6.598C13.5915 8.63489 12.2891 11.0042 12.2891 13.5785H12.8011ZM20.7081 1.883L20.7082 1.88314L21.0935 1.54597L21.0934 1.54583L20.7081 1.883ZM21.0426 1.92857L21.0593 1.91543L20.7422 1.5134L20.7256 1.52654L21.0426 1.92857ZM19.9905 2.77239C20.3537 2.47509 20.7067 2.19353 21.0426 1.92856L20.7255 1.52656C20.3881 1.79272 20.0326 2.07631 19.6662 2.3762L19.9905 2.77239ZM12.801 13.5783C12.801 11.4253 13.7796 9.38906 15.1795 7.54898C16.5785 5.71018 18.381 4.08986 19.9905 2.77239L19.6662 2.3762C18.0467 3.70187 16.2075 5.35221 14.772 7.23896C13.3376 9.12443 12.289 11.2686 12.289 13.5783H12.801ZM13.805 16.8673C13.17 16.0674 12.801 14.9403 12.801 13.5783H12.289C12.289 15.0301 12.6825 16.2768 13.4039 17.1857L13.805 16.8673Z" fill="#453526" mask="url(#path-1-outside-1_516_13026)"/>
</svg>
