<svg width="31" height="30" viewBox="0 0 31 30" fill="none" xmlns="http://www.w3.org/2000/svg">
<circle cx="4" cy="4" r="4" transform="matrix(-1 0 0 1 19.5 6)" stroke="#453526" stroke-width="1.5"/>
<path d="M8.5 19.9347C8.5 19.0743 9.04085 18.3068 9.85109 18.0175V18.0175C13.504 16.7128 17.496 16.7128 21.1489 18.0175V18.0175C21.9591 18.3068 22.5 19.0743 22.5 19.9347V21.2502C22.5 22.4376 21.4483 23.3498 20.2728 23.1818L19.3184 23.0455C16.7856 22.6837 14.2144 22.6837 11.6816 23.0455L10.7272 23.1818C9.5517 23.3498 8.5 22.4376 8.5 21.2502V19.9347Z" stroke="#453526" stroke-width="1.5"/>
<circle cx="15.5" cy="15" r="14" stroke="#453526" stroke-width="1.5"/>
</svg>
